<svg width="71" height="73" viewBox="0 0 71 73" fill="none" xmlns="http://www.w3.org/2000/svg">
<g clip-path="url(#clip0_85_2202)">
<path d="M61.087 27.4703H61.333L67.4752 10.1617L68.4083 28.4126L68.6416 28.4692C69.1778 28.6011 69.7135 28.7393 70.2497 28.8964V29.0095C62.2349 29.6378 54.4851 37.4218 47.6179 44.295C43.4119 48.5107 39.4204 52.4623 35.7756 54.5482C30.7751 57.35 26.052 58.7136 21.3352 58.7136C14.6385 58.7136 9.40458 56.7787 5.79133 53.0594C0.191778 47.2541 0.425093 38.9297 0.431399 38.8229C0.431399 38.559 -0.306367 12.3795 25.8691 9.86017H26.0836L26.2601 9.23192C28.4734 5.00373 33.146 1.49176 36.98 -0.49353C36.9043 0.561944 36.7278 2.96189 36.5323 5.16079C36.2863 7.87486 30.6426 10.3314 30.5417 10.3753L28.8202 11.3303L30.2832 12.6748C31.4561 13.7491 33.0578 15.4328 33.4361 17.6506C33.7388 19.46 33.2406 21.5018 32.7109 23.2546L32.3956 24.2662C32.011 25.4661 31.6137 26.6535 31.2101 27.8409C30.8066 29.0284 30.4408 30.1278 30.0688 31.2838C25.7304 26.7226 25.3899 15.2318 25.3647 12.9198V12.5868L25.0178 12.6308C24.9232 12.6308 15.805 13.7617 10.8865 20.1322C8.21281 23.5813 7.23542 27.9352 7.97948 33.0555C8.72359 38.1758 11.1324 41.3548 14.5628 43.2207C17.2554 44.6657 22.9873 47.8321 32.7488 41.8448C33.1334 41.6061 38.3421 37.8365 38.6952 37.5601C41.5896 35.2795 52.2969 27.0367 61.087 27.4703Z" fill="#2E96FF"/>
<path d="M40.1138 54.4162C33.6756 58.55 24.1538 62.747 14.4113 60.1522C11.9362 59.5069 9.59019 58.4448 7.47485 57.011C15.6725 66.5355 24.9735 69.6578 31.5694 70.569C35.9215 71.1836 40.349 71.0156 44.6414 70.0722C40.3408 64.55 40.0949 56.6467 40.1138 54.4162Z" fill="#5E41F7"/>
<path d="M49.9953 72.2336C51.0736 69.4946 57.6443 51.947 53.249 42.2343C48.2043 46.8017 42.8317 51.9597 42.5921 52.8646C42.5732 53.2415 41.9553 66.554 49.9953 72.2336Z" fill="#2E96FF"/>
<path d="M70.7162 31.3469C66.4091 30.4987 56.6732 39.0493 55.2794 40.2996C57.7261 45.9539 57.4169 52.5884 56.7233 57.2C56.3065 59.9092 55.6738 62.5815 54.8318 65.1914C72.3745 53.4237 70.9432 33.6149 70.7162 31.3469Z" fill="#5E41F7"/>
<path d="M66.056 66.0704C67.3174 63.2681 67.4683 57.6329 67.4683 54.9251C65.8607 58.2358 62.8023 61.4404 62.0581 62.1943C62.8368 63.9529 64.2701 65.3428 66.056 66.0704Z" fill="#2E96FF"/>
</g>
<defs>
<clipPath id="clip0_85_2202">
<rect width="71" height="73" fill="white"/>
</clipPath>
</defs>
</svg>
