<svg width="70" height="73" viewBox="0 0 70 73" fill="none" xmlns="http://www.w3.org/2000/svg">
<g clip-path="url(#clip0_85_2214)">
<path d="M61.087 27.9249H61.333L67.4752 10.6163L68.4083 28.8672L68.6416 28.9238C69.1778 29.0557 69.7135 29.1939 70.2497 29.351V29.4641C62.2349 30.0924 54.4851 37.8764 47.6179 44.7496C43.4119 48.9653 39.4204 52.9169 35.7756 55.0028C30.7751 57.8046 26.052 59.1682 21.3352 59.1682C14.6385 59.1682 9.40458 57.2333 5.79133 53.514C0.191778 47.7087 0.425093 39.3843 0.431399 39.2775C0.431399 39.0136 -0.306367 12.8341 25.8691 10.3148H26.0836L26.2601 9.68651C28.4734 5.45832 33.146 1.94635 36.98 -0.0389404C36.9043 1.01653 36.7278 3.41648 36.5323 5.61538C36.2863 8.32945 30.6426 10.7859 30.5417 10.8299L28.8202 11.7849L30.2832 13.1294C31.4561 14.2037 33.0578 15.8874 33.4361 18.1052C33.7388 19.9146 33.2406 21.9564 32.7109 23.7092L32.3956 24.7208C32.011 25.9207 31.6137 27.1081 31.2101 28.2955C30.8066 29.483 30.4408 30.5824 30.0688 31.7384C25.7304 27.1772 25.3899 15.6864 25.3647 13.3744V13.0414L25.0178 13.0854C24.9232 13.0854 15.805 14.2163 10.8865 20.5868C8.21281 24.0359 7.23542 28.3898 7.97948 33.5101C8.72359 38.6304 11.1324 41.8094 14.5628 43.6753C17.2554 45.1203 22.9873 48.2867 32.7488 42.2994C33.1334 42.0607 38.3421 38.2911 38.6952 38.0146C41.5896 35.7341 52.2969 27.4913 61.087 27.9249Z" fill="white"/>
<path d="M40.1138 54.8708C33.6756 59.0046 24.1538 63.2016 14.4113 60.6068C11.9362 59.9615 9.59019 58.8994 7.47485 57.4656C15.6725 66.9901 24.9735 70.1123 31.5694 71.0235C35.9215 71.6382 40.349 71.4701 44.6414 70.5268C40.3408 65.0046 40.0949 57.1013 40.1138 54.8708Z" fill="white"/>
<path d="M49.9953 72.6882C51.0736 69.9492 57.6443 52.4016 53.249 42.6888C48.2043 47.2562 42.8317 52.4143 42.5921 53.3192C42.5732 53.6961 41.9553 67.0086 49.9953 72.6882Z" fill="white"/>
<path d="M70.7162 31.8015C66.4091 30.9534 56.6732 39.504 55.2794 40.7542C57.7261 46.4086 57.4169 53.0431 56.7233 57.6546C56.3065 60.3639 55.6738 63.0361 54.8318 65.646C72.3745 53.8783 70.9432 34.0695 70.7162 31.8015Z" fill="white"/>
<path d="M66.056 66.525C67.3174 63.7227 67.4683 58.0875 67.4683 55.3797C65.8607 58.6904 62.8023 61.895 62.0581 62.6489C62.8368 64.4075 64.2701 65.7974 66.056 66.525Z" fill="white"/>
</g>
<defs>
<clipPath id="clip0_85_2214">
<rect width="70" height="73" fill="white"/>
</clipPath>
</defs>
</svg>
